#!OML:ASF E:\acrobat2\Project_11_07_03\Capture day 1\Session 1\Acrobat.ASF
:FULLY-SPECIFIED
:DEGREES
464
root 7.50497 17.6034 10.9014 283.035 36.8779 127.881
lowerback 10.2508 -1.71807 6.33666
upperback -1.99854 -0.968577 8.93217
thorax -7.89549 -0.568767 6.20907
lowerneck -6.71635 -10.6563 -0.662657
upperneck -26.7714 -14.0157 5.71252
head -6.68523 -6.37667 2.32091
rclavicle 5.88403e-014 6.99722e-014
rhumerus 113.732 1.24299 -122.398
rradius 12.2613
rwrist 67.1433
rhand -39.5605 -74.7048
rfingers 7.12502
rthumb -12.5441 -255.692
lclavicle 5.88403e-014 6.99722e-014
lhumerus 71.6009 34.6382 27.7138
lradius 43.7277
lwrist 2.88276
lhand -48.4398 -46.5866
lfingers 7.12502
lthumb -21.0909 -17.7136
rfemur -27.68 5.92397 -76.7467
rtibia -4.38383
rfoot -77.1711 -47.5491
rtoes 44.271
lfemur 11.1309 -9.24001 -9.74229
ltibia 8.14658
lfoot -29.3996 22.3623
ltoes 54.9416
465
root 7.477 17.5252 11.2848 282.333 34.9613 128.252
lowerback 10.3569 -1.69264 6.10054
upperback -1.72504 -0.998254 8.93248
thorax -7.65078 -0.578836 6.33582
lowerneck -6.88071 -10.724 -0.210321
upperneck -26.7144 -14.1204 5.38905
head -6.69981 -6.4095 2.14157
rclavicle 9.70069e-014 2.22639e-014
rhumerus 113.27 1.6137 -124.927
rradius 12.4785
rwrist 68.8042
rhand -39.2956 -75.0593
rfingers 7.12502
rthumb -12.2887 -255.322
lclavicle 9.70069e-014 2.22639e-014
lhumerus 70.0066 34.5215 26.414
lradius 44.8779
lwrist 3.73369
lhand -48.477 -46.3414
lfingers 7.12502
lthumb -21.1267 -17.4724
rfemur -28.6402 3.90531 -77.0647
rtibia -3.81939
rfoot -75.4221 -47.5209
rtoes 44.5646
lfemur 10.206 -8.31422 -10.1203
ltibia 8.43602
lfoot -28.4569 22.2165
ltoes 54.8899
466
root 7.45001 17.4334 11.6737 281.717 33.2712 128.594
lowerback 10.3714 -1.74467 5.59047
upperback -1.59689 -1.1513 8.83054
thorax -7.49899 -0.635051 6.52937
lowerneck -7.04474 -10.3971 -0.569642
upperneck -26.144 -13.4567 5.13147
head -6.51377 -7.69659 2.2547
rclavicle 1.03368e-013 -6.67916e-014
rhumerus 112.64 1.3962 -126.979
rradius 12.5741
rwrist 69.7173
rhand -39.1173 -75.2869
rfingers 7.12502
rthumb -12.1167 -255.084
lclavicle 1.03368e-013 -6.67916e-014
lhumerus 69.2425 34.1961 26.0171
lradius 45.4414
lwrist 3.97979
lhand -48.5489 -45.7723
lfingers 7.12502
lthumb -21.1957 -16.9111
rfemur -29.584 1.08346 -77.1694
rtibia -2.99071
rfoot -70.995 -47.9045
rtoes 43.7731
lfemur 9.03966 -7.12119 -10.6374
ltibia 8.60407
lfoot -26.3035 22.8394
ltoes 54.2956
467
root 7.42026 17.3256 12.0607 280.831 31.3081 128.652
lowerback 10.3537 -1.85606 5.4324
upperback -1.42298 -1.34628 8.78576
thorax -7.28269 -0.727351 6.58895
lowerneck -7.05206 -10.0793 -1.15923
upperneck -26.2528 -13.176 5.10594
head -6.51476 -7.55688 2.33854
rclavicle 4.29375e-014 1.97194e-013
rhumerus 112.171 0.943988 -128.811
rradius 12.5701
rwrist 70.3776
rhand -39.1046 -75.5966
rfingers 7.12502
rthumb -12.1045 -254.774
lclavicle 4.29375e-014 1.97194e-013
lhumerus 69.2937 33.8947 26.6544
lradius 45.6758
lwrist 3.78164
lhand -48.3259 -45.462
lfingers 7.12502
lthumb -20.9815 -16.5769
rfemur -30.504 -2.96217 -76.094
rtibia -1.63878
rfoot -63.4761 -48.2748
rtoes 41.6549
lfemur 7.89252 -5.78501 -10.7373
ltibia 8.73314
lfoot -23.4392 23.1927
ltoes 54.0748
468
root 7.39049 17.1992 12.4457 279.661 29.3028 128.517
lowerback 10.4414 -2.01112 5.3257
upperback -1.2209 -1.58416 8.69373
thorax -7.09556 -0.843115 6.57838
lowerneck -7.76727 -10.3707 -1.3335
upperneck -25.4149 -13.2484 6.5223
head -5.99579 -7.59978 2.69563
rclavicle -5.24792e-014 -1.11319e-013
rhumerus 111.821 0.520344 -130.996
rradius 12.6207
rwrist 71.3159
rhand -38.988 -75.8021
rfingers 7.12502
rthumb -11.9921 -254.561
lclavicle -5.24792e-014 -1.11319e-013
lhumerus 68.9506 33.6969 26.8976
lradius 46.3838
lwrist 4.3968
lhand -47.8529 -45.2087
lfingers 7.12502
lthumb -20.527 -16.2739
rfemur -31.6396 -8.33268 -73.9992
rtibia 0.686265
rfoot -53.1602 -47.4342
rtoes 38.7132
lfemur 6.8853 -4.78666 -10.8293
ltibia 8.83747
lfoot -20.8147 22.9655
ltoes 54.1794
